<svg width="69" height="69" viewBox="0 0 69 69" fill="none" xmlns="http://www.w3.org/2000/svg">
<path d="M30.1286 23.29C30.9868 23.29 31.6841 23.1961 32.2205 23.0084C32.7836 22.8207 33.2395 22.5659 33.5882 22.2441C33.9368 21.9223 34.2184 21.5468 34.433 21.1177C34.6475 20.6886 34.8352 20.2327 34.9961 19.75H37.973V47.9091H33.548V26.4277H30.1286V23.29Z" fill="#E25E5E"/>
<path d="M34.5 2.5C52.1731 2.5 66.5 16.8269 66.5 34.5C66.5 52.1731 52.1731 66.5 34.5 66.5C16.8269 66.5 2.5 52.1731 2.5 34.5C2.5 16.8269 16.8269 2.5 34.5 2.5Z" stroke="#E25E5E" stroke-width="5"/>
</svg>
