<svg width="69" height="69" viewBox="0 0 69 69" fill="none" xmlns="http://www.w3.org/2000/svg">
<path d="M36.1627 26.6691C36.1627 25.4086 35.9482 24.5639 35.5191 24.1348C35.1168 23.6789 34.567 23.4509 33.8698 23.4509C33.1725 23.4509 32.6093 23.6655 32.1802 24.0945C31.778 24.4968 31.5768 25.2075 31.5768 26.2266V29.2436H27.3932V26.5082C27.3932 24.2286 27.943 22.4855 29.0425 21.2786C30.1689 20.045 31.8182 19.4282 33.9905 19.4282C36.1627 19.4282 37.7986 20.045 38.8982 21.2786C40.0245 22.4855 40.5877 24.2286 40.5877 26.5082C40.5877 28.0368 40.3464 29.418 39.8636 30.6516C39.4077 31.8852 38.8311 33.0116 38.1339 34.0307C37.4366 35.0498 36.6857 35.9884 35.8811 36.8466C35.0766 37.678 34.3525 38.4825 33.7089 39.2602C33.0652 40.0111 32.5557 40.762 32.1802 41.513C31.8048 42.2639 31.6841 43.055 31.8182 43.8864H40.1855V47.9091H27.3932V44.4495C27.3932 43.0818 27.6077 41.875 28.0368 40.8291C28.4659 39.7832 29.0023 38.8311 29.6459 37.973C30.3164 37.088 31.027 36.27 31.778 35.5191C32.5289 34.7414 33.2261 33.9234 33.8698 33.0652C34.5402 32.207 35.09 31.2684 35.5191 30.2493C35.9482 29.2302 36.1627 28.0368 36.1627 26.6691Z" fill="#E25E5E"/>
<path d="M34.5 2.5C52.1731 2.5 66.5 16.8269 66.5 34.5C66.5 52.1731 52.1731 66.5 34.5 66.5C16.8269 66.5 2.5 52.1731 2.5 34.5C2.5 16.8269 16.8269 2.5 34.5 2.5Z" stroke="#E25E5E" stroke-width="5"/>
</svg>
