<svg width="69" height="69" viewBox="0 0 69 69" fill="none" xmlns="http://www.w3.org/2000/svg">
<path d="M35.9214 26.6691C35.9214 25.4086 35.7068 24.5639 35.2777 24.1348C34.8755 23.6789 34.3257 23.4509 33.6284 23.4509C32.9311 23.4509 32.368 23.6655 31.9389 24.0945C31.5366 24.4968 31.3355 25.2075 31.3355 26.2266V28.0368H27.1518V26.5082C27.1518 24.2286 27.7016 22.4855 28.8011 21.2786C29.9275 20.045 31.5768 19.4282 33.7491 19.4282C35.9214 19.4282 37.5573 20.045 38.6568 21.2786C39.7832 22.4855 40.3464 24.2286 40.3464 26.5082V27.2323C40.3464 30.2359 39.3139 32.1668 37.2489 33.025C38.3752 33.5077 39.1664 34.2586 39.6223 35.2777C40.105 36.27 40.3464 37.4902 40.3464 38.9384V41.1509C40.3464 43.4305 39.7832 45.187 38.6568 46.4207C37.5573 47.6275 35.9214 48.2309 33.7491 48.2309C31.5768 48.2309 29.9275 47.6275 28.8011 46.4207C27.7016 45.187 27.1518 43.4305 27.1518 41.1509V38.8177H31.3355V41.4325C31.3355 42.4516 31.5366 43.1757 31.9389 43.6048C32.368 44.007 32.9311 44.2082 33.6284 44.2082C34.3257 44.2082 34.8755 43.9936 35.2777 43.5645C35.7068 43.1355 35.9214 42.2907 35.9214 41.0302V38.8177C35.9214 37.5036 35.6934 36.5784 35.2375 36.042C34.7816 35.5057 34.0441 35.2375 33.025 35.2375H31.5366V31.2148H33.2664C34.0977 31.2148 34.7414 31.0002 35.1973 30.5711C35.68 30.142 35.9214 29.3643 35.9214 28.238V26.6691Z" fill="#E25E5E"/>
<path d="M34.5 2.5C52.1731 2.5 66.5 16.8269 66.5 34.5C66.5 52.1731 52.1731 66.5 34.5 66.5C16.8269 66.5 2.5 52.1731 2.5 34.5C2.5 16.8269 16.8269 2.5 34.5 2.5Z" stroke="#E25E5E" stroke-width="5"/>
</svg>
